# Wavefront OBJ file automatically generated by Tiled2Unity

# Vertices (Count = 346)
v 0 -1 0
v -1 -1 0
v -1 0 0
v 0 0 0
v -2 -1 0
v -2 0 0
v -3 -1 0
v -3 0 0
v -4 -1 0
v -4 0 0
v -5 -1 0
v -5 0 0
v -6 -1 0
v -6 0 0
v -7 -1 0
v -7 0 0
v -8 -1 0
v -8 0 0
v -9 -1 0
v -9 0 0
v -10 -1 0
v -10 0 0
v -11 -1 0
v -11 0 0
v -12 -1 0
v -12 0 0
v -13 -1 0
v -13 0 0
v -14 -1 0
v -14 0 0
v -15 -1 0
v -15 0 0
v -16 -1 0
v -16 0 0
v -17 -1 0
v -17 0 0
v -18 -1 0
v -18 0 0
v -19 -1 0
v -19 0 0
v -20 -1 0
v -20 0 0
v -21 -1 0
v -21 0 0
v -22 -1 0
v -22 0 0
v -23 -1 0
v -23 0 0
v -24 -1 0
v -24 0 0
v -25 -1 0
v -25 0 0
v -26 -1 0
v -26 0 0
v -27 -1 0
v -27 0 0
v -28 -1 0
v -28 0 0
v -29 -1 0
v -29 0 0
v -30 -1 0
v -30 0 0
v -31 -1 0
v -31 0 0
v -32 -1 0
v -32 0 0
v 0 -2 0
v -1 -2 0
v -31 -2 0
v -32 -2 0
v 0 -3 0
v -1 -3 0
v -31 -3 0
v -32 -3 0
v 0 -4 0
v -1 -4 0
v -31 -4 0
v -32 -4 0
v 0 -5 0
v -1 -5 0
v -16 -5 0
v -17 -5 0
v -17 -4 0
v -16 -4 0
v -18 -5 0
v -18 -4 0
v -19 -5 0
v -19 -4 0
v -20 -5 0
v -20 -4 0
v -21 -5 0
v -21 -4 0
v -22 -5 0
v -22 -4 0
v -23 -5 0
v -23 -4 0
v -24 -5 0
v -24 -4 0
v -25 -5 0
v -25 -4 0
v -26 -5 0
v -26 -4 0
v -27 -5 0
v -27 -4 0
v -28 -5 0
v -28 -4 0
v -29 -5 0
v -29 -4 0
v -30 -5 0
v -30 -4 0
v -31 -5 0
v -32 -5 0
v 0 -6 0
v -1 -6 0
v -2 -6 0
v -2 -5 0
v -3 -6 0
v -3 -5 0
v -4 -6 0
v -4 -5 0
v -5 -6 0
v -5 -5 0
v -6 -6 0
v -6 -5 0
v -31 -6 0
v -32 -6 0
v 0 -7 0
v -1 -7 0
v -31 -7 0
v -32 -7 0
v 0 -8 0
v -1 -8 0
v -31 -8 0
v -32 -8 0
v 0 -9 0
v -1 -9 0
v -2 -9 0
v -2 -8 0
v -3 -9 0
v -3 -8 0
v -4 -9 0
v -4 -8 0
v -5 -9 0
v -5 -8 0
v -6 -9 0
v -6 -8 0
v -12 -9 0
v -13 -9 0
v -13 -8 0
v -12 -8 0
v -14 -9 0
v -14 -8 0
v -15 -9 0
v -15 -8 0
v -16 -9 0
v -16 -8 0
v -17 -9 0
v -17 -8 0
v -18 -9 0
v -18 -8 0
v -19 -9 0
v -19 -8 0
v -20 -9 0
v -20 -8 0
v -21 -9 0
v -21 -8 0
v -27 -9 0
v -28 -9 0
v -28 -8 0
v -27 -8 0
v -29 -9 0
v -29 -8 0
v -30 -9 0
v -30 -8 0
v -31 -9 0
v -32 -9 0
v 0 -10 0
v -1 -10 0
v -16 -10 0
v -17 -10 0
v -31 -10 0
v -32 -10 0
v 0 -11 0
v -1 -11 0
v -16 -11 0
v -17 -11 0
v -31 -11 0
v -32 -11 0
v 0 -12 0
v -1 -12 0
v -2 -12 0
v -2 -11 0
v -3 -12 0
v -3 -11 0
v -4 -12 0
v -4 -11 0
v -5 -12 0
v -5 -11 0
v -6 -12 0
v -6 -11 0
v -12 -12 0
v -13 -12 0
v -13 -11 0
v -12 -11 0
v -14 -12 0
v -14 -11 0
v -15 -12 0
v -15 -11 0
v -16 -12 0
v -17 -12 0
v -18 -12 0
v -18 -11 0
v -19 -12 0
v -19 -11 0
v -20 -12 0
v -20 -11 0
v -27 -12 0
v -28 -12 0
v -28 -11 0
v -27 -11 0
v -29 -12 0
v -29 -11 0
v -30 -12 0
v -30 -11 0
v -31 -12 0
v -32 -12 0
v 0 -13 0
v -1 -13 0
v -16 -13 0
v -17 -13 0
v -31 -13 0
v -32 -13 0
v 0 -14 0
v -1 -14 0
v -16 -14 0
v -17 -14 0
v -31 -14 0
v -32 -14 0
v 0 -15 0
v -1 -15 0
v -2 -15 0
v -2 -14 0
v -3 -15 0
v -3 -14 0
v -4 -15 0
v -4 -14 0
v -5 -15 0
v -5 -14 0
v -12 -15 0
v -13 -15 0
v -13 -14 0
v -12 -14 0
v -14 -15 0
v -14 -14 0
v -15 -15 0
v -15 -14 0
v -16 -15 0
v -17 -15 0
v -18 -15 0
v -18 -14 0
v -19 -15 0
v -19 -14 0
v -20 -15 0
v -20 -14 0
v -27 -15 0
v -28 -15 0
v -28 -14 0
v -27 -14 0
v -29 -15 0
v -29 -14 0
v -30 -15 0
v -30 -14 0
v -31 -15 0
v -32 -15 0
v 0 -16 0
v -1 -16 0
v -16 -16 0
v -17 -16 0
v -31 -16 0
v -32 -16 0
v 0 -17 0
v -1 -17 0
v -16 -17 0
v -17 -17 0
v -31 -17 0
v -32 -17 0
v 0 -18 0
v -1 -18 0
v -2 -18 0
v -2 -17 0
v -3 -18 0
v -3 -17 0
v -4 -18 0
v -4 -17 0
v -5 -18 0
v -5 -17 0
v -6 -18 0
v -6 -17 0
v -7 -18 0
v -7 -17 0
v -8 -18 0
v -8 -17 0
v -9 -18 0
v -9 -17 0
v -10 -18 0
v -10 -17 0
v -11 -18 0
v -11 -17 0
v -12 -18 0
v -12 -17 0
v -13 -18 0
v -13 -17 0
v -14 -18 0
v -14 -17 0
v -15 -18 0
v -15 -17 0
v -16 -18 0
v -17 -18 0
v -18 -18 0
v -18 -17 0
v -19 -18 0
v -19 -17 0
v -20 -18 0
v -20 -17 0
v -21 -18 0
v -21 -17 0
v -22 -18 0
v -22 -17 0
v -23 -18 0
v -23 -17 0
v -24 -18 0
v -24 -17 0
v -25 -18 0
v -25 -17 0
v -26 -18 0
v -26 -17 0
v -27 -18 0
v -27 -17 0
v -28 -18 0
v -28 -17 0
v -29 -18 0
v -29 -17 0
v -30 -18 0
v -30 -17 0
v -31 -18 0
v -32 -18 0

# Texture Coorindates (Count = 12)
vt 0.2501221 0.7501221
vt 0.4998779 0.7501221
vt 0.4998779 0.9998779
vt 0.2501221 0.9998779
vt 0.5001221 0.7501221
vt 0.7498779 0.7501221
vt 0.7498779 0.9998779
vt 0.5001221 0.9998779
vt 0.7501221 0.7501221
vt 0.9998779 0.7501221
vt 0.9998779 0.9998779
vt 0.7501221 0.9998779

# Normal
vn 0 0 -1

# Groups (Count = 1)
g mesh_[00]_[00]
f  1/1/1  2/2/1  3/3/1  4/4/1 
f  2/5/1  5/6/1  6/7/1  3/8/1 
f  5/5/1  7/6/1  8/7/1  6/8/1 
f  7/5/1  9/6/1  10/7/1  8/8/1 
f  9/5/1  11/6/1  12/7/1  10/8/1 
f  11/5/1  13/6/1  14/7/1  12/8/1 
f  13/5/1  15/6/1  16/7/1  14/8/1 
f  15/5/1  17/6/1  18/7/1  16/8/1 
f  17/5/1  19/6/1  20/7/1  18/8/1 
f  19/5/1  21/6/1  22/7/1  20/8/1 
f  21/5/1  23/6/1  24/7/1  22/8/1 
f  23/5/1  25/6/1  26/7/1  24/8/1 
f  25/5/1  27/6/1  28/7/1  26/8/1 
f  27/5/1  29/6/1  30/7/1  28/8/1 
f  29/5/1  31/6/1  32/7/1  30/8/1 
f  31/5/1  33/6/1  34/7/1  32/8/1 
f  33/5/1  35/6/1  36/7/1  34/8/1 
f  35/5/1  37/6/1  38/7/1  36/8/1 
f  37/5/1  39/6/1  40/7/1  38/8/1 
f  39/5/1  41/6/1  42/7/1  40/8/1 
f  41/5/1  43/6/1  44/7/1  42/8/1 
f  43/5/1  45/6/1  46/7/1  44/8/1 
f  45/5/1  47/6/1  48/7/1  46/8/1 
f  47/5/1  49/6/1  50/7/1  48/8/1 
f  49/5/1  51/6/1  52/7/1  50/8/1 
f  51/5/1  53/6/1  54/7/1  52/8/1 
f  53/5/1  55/6/1  56/7/1  54/8/1 
f  55/5/1  57/6/1  58/7/1  56/8/1 
f  57/5/1  59/6/1  60/7/1  58/8/1 
f  59/5/1  61/6/1  62/7/1  60/8/1 
f  61/5/1  63/6/1  64/7/1  62/8/1 
f  63/1/1  65/2/1  66/3/1  64/4/1 
f  67/9/1  68/10/1  2/11/1  1/12/1 
f  69/9/1  70/10/1  65/11/1  63/12/1 
f  71/9/1  72/10/1  68/11/1  67/12/1 
f  73/9/1  74/10/1  70/11/1  69/12/1 
f  75/9/1  76/10/1  72/11/1  71/12/1 
f  77/9/1  78/10/1  74/11/1  73/12/1 
f  79/9/1  80/10/1  76/11/1  75/12/1 
f  81/1/1  82/2/1  83/3/1  84/4/1 
f  82/5/1  85/6/1  86/7/1  83/8/1 
f  85/5/1  87/6/1  88/7/1  86/8/1 
f  87/5/1  89/6/1  90/7/1  88/8/1 
f  89/5/1  91/6/1  92/7/1  90/8/1 
f  91/5/1  93/6/1  94/7/1  92/8/1 
f  93/5/1  95/6/1  96/7/1  94/8/1 
f  95/5/1  97/6/1  98/7/1  96/8/1 
f  97/5/1  99/6/1  100/7/1  98/8/1 
f  99/5/1  101/6/1  102/7/1  100/8/1 
f  101/5/1  103/6/1  104/7/1  102/8/1 
f  103/5/1  105/6/1  106/7/1  104/8/1 
f  105/5/1  107/6/1  108/7/1  106/8/1 
f  107/5/1  109/6/1  110/7/1  108/8/1 
f  109/5/1  111/6/1  77/7/1  110/8/1 
f  111/9/1  112/10/1  78/11/1  77/12/1 
f  113/9/1  114/10/1  80/11/1  79/12/1 
f  114/5/1  115/6/1  116/7/1  80/8/1 
f  115/5/1  117/6/1  118/7/1  116/8/1 
f  117/5/1  119/6/1  120/7/1  118/8/1 
f  119/5/1  121/6/1  122/7/1  120/8/1 
f  121/5/1  123/6/1  124/7/1  122/8/1 
f  125/9/1  126/10/1  112/11/1  111/12/1 
f  127/9/1  128/10/1  114/11/1  113/12/1 
f  129/9/1  130/10/1  126/11/1  125/12/1 
f  131/9/1  132/10/1  128/11/1  127/12/1 
f  133/9/1  134/10/1  130/11/1  129/12/1 
f  135/9/1  136/10/1  132/11/1  131/12/1 
f  136/5/1  137/6/1  138/7/1  132/8/1 
f  137/5/1  139/6/1  140/7/1  138/8/1 
f  139/5/1  141/6/1  142/7/1  140/8/1 
f  141/5/1  143/6/1  144/7/1  142/8/1 
f  143/5/1  145/6/1  146/7/1  144/8/1 
f  147/5/1  148/6/1  149/7/1  150/8/1 
f  148/5/1  151/6/1  152/7/1  149/8/1 
f  151/5/1  153/6/1  154/7/1  152/8/1 
f  153/5/1  155/6/1  156/7/1  154/8/1 
f  155/9/1  157/10/1  158/11/1  156/12/1 
f  157/5/1  159/6/1  160/7/1  158/8/1 
f  159/5/1  161/6/1  162/7/1  160/8/1 
f  161/5/1  163/6/1  164/7/1  162/8/1 
f  163/5/1  165/6/1  166/7/1  164/8/1 
f  167/5/1  168/6/1  169/7/1  170/8/1 
f  168/5/1  171/6/1  172/7/1  169/8/1 
f  171/5/1  173/6/1  174/7/1  172/8/1 
f  173/5/1  175/6/1  133/7/1  174/8/1 
f  175/9/1  176/10/1  134/11/1  133/12/1 
f  177/9/1  178/10/1  136/11/1  135/12/1 
f  179/9/1  180/10/1  157/11/1  155/12/1 
f  181/9/1  182/10/1  176/11/1  175/12/1 
f  183/9/1  184/10/1  178/11/1  177/12/1 
f  185/9/1  186/10/1  180/11/1  179/12/1 
f  187/9/1  188/10/1  182/11/1  181/12/1 
f  189/9/1  190/10/1  184/11/1  183/12/1 
f  190/5/1  191/6/1  192/7/1  184/8/1 
f  191/5/1  193/6/1  194/7/1  192/8/1 
f  193/5/1  195/6/1  196/7/1  194/8/1 
f  195/5/1  197/6/1  198/7/1  196/8/1 
f  197/5/1  199/6/1  200/7/1  198/8/1 
f  201/5/1  202/6/1  203/7/1  204/8/1 
f  202/5/1  205/6/1  206/7/1  203/8/1 
f  205/5/1  207/6/1  208/7/1  206/8/1 
f  207/5/1  209/6/1  185/7/1  208/8/1 
f  209/9/1  210/10/1  186/11/1  185/12/1 
f  210/5/1  211/6/1  212/7/1  186/8/1 
f  211/5/1  213/6/1  214/7/1  212/8/1 
f  213/5/1  215/6/1  216/7/1  214/8/1 
f  217/5/1  218/6/1  219/7/1  220/8/1 
f  218/5/1  221/6/1  222/7/1  219/8/1 
f  221/5/1  223/6/1  224/7/1  222/8/1 
f  223/5/1  225/6/1  187/7/1  224/8/1 
f  225/9/1  226/10/1  188/11/1  187/12/1 
f  227/9/1  228/10/1  190/11/1  189/12/1 
f  229/9/1  230/10/1  210/11/1  209/12/1 
f  231/9/1  232/10/1  226/11/1  225/12/1 
f  233/9/1  234/10/1  228/11/1  227/12/1 
f  235/9/1  236/10/1  230/11/1  229/12/1 
f  237/9/1  238/10/1  232/11/1  231/12/1 
f  239/9/1  240/10/1  234/11/1  233/12/1 
f  240/5/1  241/6/1  242/7/1  234/8/1 
f  241/5/1  243/6/1  244/7/1  242/8/1 
f  243/5/1  245/6/1  246/7/1  244/8/1 
f  245/5/1  247/6/1  248/7/1  246/8/1 
f  249/5/1  250/6/1  251/7/1  252/8/1 
f  250/5/1  253/6/1  254/7/1  251/8/1 
f  253/5/1  255/6/1  256/7/1  254/8/1 
f  255/5/1  257/6/1  235/7/1  256/8/1 
f  257/9/1  258/10/1  236/11/1  235/12/1 
f  258/5/1  259/6/1  260/7/1  236/8/1 
f  259/5/1  261/6/1  262/7/1  260/8/1 
f  261/5/1  263/6/1  264/7/1  262/8/1 
f  265/5/1  266/6/1  267/7/1  268/8/1 
f  266/5/1  269/6/1  270/7/1  267/8/1 
f  269/5/1  271/6/1  272/7/1  270/8/1 
f  271/5/1  273/6/1  237/7/1  272/8/1 
f  273/9/1  274/10/1  238/11/1  237/12/1 
f  275/9/1  276/10/1  240/11/1  239/12/1 
f  277/9/1  278/10/1  258/11/1  257/12/1 
f  279/9/1  280/10/1  274/11/1  273/12/1 
f  281/9/1  282/10/1  276/11/1  275/12/1 
f  283/9/1  284/10/1  278/11/1  277/12/1 
f  285/9/1  286/10/1  280/11/1  279/12/1 
f  287/1/1  288/2/1  282/3/1  281/4/1 
f  288/5/1  289/6/1  290/7/1  282/8/1 
f  289/5/1  291/6/1  292/7/1  290/8/1 
f  291/5/1  293/6/1  294/7/1  292/8/1 
f  293/5/1  295/6/1  296/7/1  294/8/1 
f  295/5/1  297/6/1  298/7/1  296/8/1 
f  297/5/1  299/6/1  300/7/1  298/8/1 
f  299/5/1  301/6/1  302/7/1  300/8/1 
f  301/5/1  303/6/1  304/7/1  302/8/1 
f  303/5/1  305/6/1  306/7/1  304/8/1 
f  305/5/1  307/6/1  308/7/1  306/8/1 
f  307/5/1  309/6/1  310/7/1  308/8/1 
f  309/5/1  311/6/1  312/7/1  310/8/1 
f  311/5/1  313/6/1  314/7/1  312/8/1 
f  313/5/1  315/6/1  316/7/1  314/8/1 
f  315/5/1  317/6/1  283/7/1  316/8/1 
f  317/1/1  318/2/1  284/3/1  283/4/1 
f  318/5/1  319/6/1  320/7/1  284/8/1 
f  319/5/1  321/6/1  322/7/1  320/8/1 
f  321/5/1  323/6/1  324/7/1  322/8/1 
f  323/5/1  325/6/1  326/7/1  324/8/1 
f  325/5/1  327/6/1  328/7/1  326/8/1 
f  327/5/1  329/6/1  330/7/1  328/8/1 
f  329/5/1  331/6/1  332/7/1  330/8/1 
f  331/5/1  333/6/1  334/7/1  332/8/1 
f  333/5/1  335/6/1  336/7/1  334/8/1 
f  335/5/1  337/6/1  338/7/1  336/8/1 
f  337/5/1  339/6/1  340/7/1  338/8/1 
f  339/5/1  341/6/1  342/7/1  340/8/1 
f  341/5/1  343/6/1  344/7/1  342/8/1 
f  343/5/1  345/6/1  285/7/1  344/8/1 
f  345/1/1  346/2/1  286/3/1  285/4/1 
