# Wavefront OBJ file automatically generated by Tiled2Unity

# Vertices (Count = 518)
v 0 -32 0
v -32 -32 0
v -32 0 0
v 0 0 0
v -64 -32 0
v -64 0 0
v -96 -32 0
v -96 0 0
v -128 -32 0
v -128 0 0
v -160 -32 0
v -160 0 0
v -736 -32 0
v -768 -32 0
v -768 0 0
v -736 0 0
v -800 -32 0
v -800 0 0
v -832 -32 0
v -832 0 0
v -864 -32 0
v -864 0 0
v -896 -32 0
v -896 0 0
v -928 -32 0
v -928 0 0
v -960 -32 0
v -960 0 0
v -992 -32 0
v -992 0 0
v -1024 -32 0
v -1024 0 0
v -1056 -32 0
v -1056 0 0
v -1568 -32 0
v -1600 -32 0
v -1600 0 0
v -1568 0 0
v 0 -64 0
v -32 -64 0
v -800 -64 0
v -832 -64 0
v -960 -64 0
v -992 -64 0
v -1568 -64 0
v -1600 -64 0
v 0 -96 0
v -32 -96 0
v -384 -96 0
v -416 -96 0
v -416 -64 0
v -384 -64 0
v -448 -96 0
v -448 -64 0
v -480 -96 0
v -480 -64 0
v -512 -96 0
v -512 -64 0
v -544 -96 0
v -544 -64 0
v -576 -96 0
v -576 -64 0
v -608 -96 0
v -608 -64 0
v -640 -96 0
v -640 -64 0
v -672 -96 0
v -672 -64 0
v -704 -96 0
v -704 -64 0
v -736 -96 0
v -736 -64 0
v -768 -96 0
v -768 -64 0
v -1568 -96 0
v -1600 -96 0
v 0 -128 0
v -32 -128 0
v -448 -128 0
v -480 -128 0
v -512 -128 0
v -544 -128 0
v -704 -128 0
v -736 -128 0
v -1568 -128 0
v -1600 -128 0
v 0 -160 0
v -32 -160 0
v -64 -160 0
v -96 -160 0
v -96 -128 0
v -64 -128 0
v -128 -160 0
v -128 -128 0
v -160 -160 0
v -160 -128 0
v -192 -160 0
v -192 -128 0
v -224 -160 0
v -224 -128 0
v -256 -160 0
v -256 -128 0
v -288 -160 0
v -288 -128 0
v -512 -160 0
v -544 -160 0
v -1568 -160 0
v -1600 -160 0
v 0 -192 0
v -32 -192 0
v -96 -192 0
v -128 -192 0
v -160 -192 0
v -192 -192 0
v -224 -192 0
v -512 -192 0
v -544 -192 0
v -1056 -192 0
v -1088 -192 0
v -1088 -160 0
v -1056 -160 0
v -1120 -192 0
v -1120 -160 0
v -1152 -192 0
v -1152 -160 0
v -1184 -192 0
v -1184 -160 0
v -1216 -192 0
v -1216 -160 0
v -1248 -192 0
v -1248 -160 0
v -1280 -192 0
v -1280 -160 0
v -1312 -192 0
v -1312 -160 0
v -1344 -192 0
v -1344 -160 0
v -1376 -192 0
v -1376 -160 0
v -1408 -192 0
v -1408 -160 0
v -1568 -192 0
v -1600 -192 0
v 0 -224 0
v -32 -224 0
v -512 -224 0
v -544 -224 0
v -608 -224 0
v -640 -224 0
v -640 -192 0
v -608 -192 0
v -672 -224 0
v -672 -192 0
v -704 -224 0
v -704 -192 0
v -736 -224 0
v -736 -192 0
v -768 -224 0
v -768 -192 0
v -800 -224 0
v -800 -192 0
v -832 -224 0
v -832 -192 0
v -864 -224 0
v -864 -192 0
v -896 -224 0
v -896 -192 0
v -1120 -224 0
v -1152 -224 0
v -1216 -224 0
v -1248 -224 0
v -1568 -224 0
v -1600 -224 0
v 0 -256 0
v -32 -256 0
v -512 -256 0
v -544 -256 0
v -640 -256 0
v -672 -256 0
v -1120 -256 0
v -1152 -256 0
v -1568 -256 0
v -1600 -256 0
v 0 -288 0
v -32 -288 0
v -512 -288 0
v -544 -288 0
v -1120 -288 0
v -1152 -288 0
v -1568 -288 0
v -1600 -288 0
v 0 -320 0
v -32 -320 0
v -64 -320 0
v -64 -288 0
v -96 -320 0
v -96 -288 0
v -128 -320 0
v -128 -288 0
v -224 -320 0
v -256 -320 0
v -256 -288 0
v -224 -288 0
v -288 -320 0
v -288 -288 0
v -320 -320 0
v -320 -288 0
v -352 -320 0
v -352 -288 0
v -384 -320 0
v -384 -288 0
v -512 -320 0
v -544 -320 0
v -1120 -320 0
v -1152 -320 0
v -1184 -320 0
v -1184 -288 0
v -1216 -320 0
v -1216 -288 0
v -1248 -320 0
v -1248 -288 0
v -1280 -320 0
v -1280 -288 0
v -1312 -320 0
v -1312 -288 0
v -1344 -320 0
v -1344 -288 0
v -1376 -320 0
v -1408 -320 0
v -1408 -288 0
v -1376 -288 0
v -1440 -320 0
v -1440 -288 0
v -1472 -320 0
v -1472 -288 0
v -1504 -320 0
v -1504 -288 0
v -1536 -320 0
v -1536 -288 0
v -1568 -320 0
v -1600 -320 0
v 0 -352 0
v -32 -352 0
v -64 -352 0
v -96 -352 0
v -256 -352 0
v -288 -352 0
v -320 -352 0
v -352 -352 0
v -416 -352 0
v -448 -352 0
v -448 -320 0
v -416 -320 0
v -480 -352 0
v -480 -320 0
v -512 -352 0
v -544 -352 0
v -608 -352 0
v -640 -352 0
v -640 -320 0
v -608 -320 0
v -1568 -352 0
v -1600 -352 0
v 0 -384 0
v -32 -384 0
v -608 -384 0
v -640 -384 0
v -672 -384 0
v -672 -352 0
v -704 -384 0
v -704 -352 0
v -736 -384 0
v -736 -352 0
v -768 -384 0
v -768 -352 0
v -800 -384 0
v -800 -352 0
v -832 -384 0
v -832 -352 0
v -864 -384 0
v -864 -352 0
v -896 -384 0
v -896 -352 0
v -928 -384 0
v -928 -352 0
v -960 -384 0
v -960 -352 0
v -1568 -384 0
v -1600 -384 0
v 0 -416 0
v -32 -416 0
v -96 -416 0
v -128 -416 0
v -128 -384 0
v -96 -384 0
v -160 -416 0
v -160 -384 0
v -192 -416 0
v -192 -384 0
v -224 -416 0
v -224 -384 0
v -736 -416 0
v -768 -416 0
v -800 -416 0
v -832 -416 0
v -864 -416 0
v -896 -416 0
v -928 -416 0
v -960 -416 0
v -992 -416 0
v -992 -384 0
v -1568 -416 0
v -1600 -416 0
v 0 -448 0
v -32 -448 0
v -96 -448 0
v -128 -448 0
v -736 -448 0
v -768 -448 0
v -800 -448 0
v -832 -448 0
v -864 -448 0
v -896 -448 0
v -928 -448 0
v -960 -448 0
v -992 -448 0
v -1024 -448 0
v -1024 -416 0
v -1568 -448 0
v -1600 -448 0
v 0 -480 0
v -32 -480 0
v -736 -480 0
v -768 -480 0
v -800 -480 0
v -832 -480 0
v -864 -480 0
v -896 -480 0
v -1568 -480 0
v -1600 -480 0
v 0 -512 0
v -32 -512 0
v -736 -512 0
v -768 -512 0
v -800 -512 0
v -832 -512 0
v -864 -512 0
v -896 -512 0
v -1056 -512 0
v -1088 -512 0
v -1088 -480 0
v -1056 -480 0
v -1120 -512 0
v -1120 -480 0
v -1568 -512 0
v -1600 -512 0
v 0 -544 0
v -32 -544 0
v -64 -544 0
v -64 -512 0
v -96 -544 0
v -96 -512 0
v -128 -544 0
v -128 -512 0
v -736 -544 0
v -768 -544 0
v -800 -544 0
v -832 -544 0
v -864 -544 0
v -896 -544 0
v -1024 -544 0
v -1056 -544 0
v -1024 -512 0
v -1088 -544 0
v -1120 -544 0
v -1568 -544 0
v -1600 -544 0
v 0 -576 0
v -32 -576 0
v -288 -576 0
v -320 -576 0
v -320 -544 0
v -288 -544 0
v -576 -576 0
v -608 -576 0
v -608 -544 0
v -576 -544 0
v -992 -576 0
v -1024 -576 0
v -992 -544 0
v -1056 -576 0
v -1088 -576 0
v -1120 -576 0
v -1568 -576 0
v -1600 -576 0
v 0 -608 0
v -32 -608 0
v -256 -608 0
v -288 -608 0
v -256 -576 0
v -320 -608 0
v -352 -608 0
v -352 -576 0
v -384 -608 0
v -384 -576 0
v -416 -608 0
v -416 -576 0
v -448 -608 0
v -448 -576 0
v -480 -608 0
v -480 -576 0
v -512 -608 0
v -512 -576 0
v -544 -608 0
v -544 -576 0
v -576 -608 0
v -608 -608 0
v -640 -608 0
v -640 -576 0
v -960 -608 0
v -992 -608 0
v -960 -576 0
v -1024 -608 0
v -1056 -608 0
v -1088 -608 0
v -1120 -608 0
v -1152 -608 0
v -1152 -576 0
v -1184 -608 0
v -1184 -576 0
v -1216 -608 0
v -1216 -576 0
v -1248 -608 0
v -1248 -576 0
v -1280 -608 0
v -1280 -576 0
v -1312 -608 0
v -1312 -576 0
v -1344 -608 0
v -1344 -576 0
v -1376 -608 0
v -1376 -576 0
v -1408 -608 0
v -1408 -576 0
v -1504 -608 0
v -1536 -608 0
v -1536 -576 0
v -1504 -576 0
v -1568 -608 0
v -1600 -608 0
v 0 -640 0
v -32 -640 0
v -64 -640 0
v -64 -608 0
v -96 -640 0
v -96 -608 0
v -128 -640 0
v -128 -608 0
v -160 -640 0
v -160 -608 0
v -192 -640 0
v -192 -608 0
v -224 -640 0
v -224 -608 0
v -256 -640 0
v -288 -640 0
v -320 -640 0
v -352 -640 0
v -384 -640 0
v -416 -640 0
v -448 -640 0
v -480 -640 0
v -512 -640 0
v -544 -640 0
v -576 -640 0
v -608 -640 0
v -640 -640 0
v -672 -640 0
v -672 -608 0
v -704 -640 0
v -704 -608 0
v -736 -640 0
v -736 -608 0
v -768 -640 0
v -768 -608 0
v -800 -640 0
v -800 -608 0
v -832 -640 0
v -832 -608 0
v -864 -640 0
v -864 -608 0
v -896 -640 0
v -896 -608 0
v -928 -640 0
v -928 -608 0
v -960 -640 0
v -992 -640 0
v -1024 -640 0
v -1056 -640 0
v -1088 -640 0
v -1120 -640 0
v -1152 -640 0
v -1184 -640 0
v -1216 -640 0
v -1248 -640 0
v -1280 -640 0
v -1312 -640 0
v -1344 -640 0
v -1376 -640 0
v -1408 -640 0
v -1440 -640 0
v -1440 -608 0
v -1472 -640 0
v -1472 -608 0
v -1504 -640 0
v -1536 -640 0
v -1568 -640 0
v -1600 -640 0

# Texture Coorindates (Count = 48)
vt 0.1251221 0.6667888
vt 0.2498779 0.6667888
vt 0.2498779 0.8332112
vt 0.1251221 0.8332112
vt 0.0001220703 0.8334554
vt 0.1248779 0.8334554
vt 0.1248779 0.9998779
vt 0.0001220703 0.9998779
vt 0.0001220703 0.6667888
vt 0.1248779 0.6667888
vt 0.1248779 0.8332112
vt 0.0001220703 0.8332112
vt 0.1251221 0.8334554
vt 0.2498779 0.8334554
vt 0.2498779 0.9998779
vt 0.1251221 0.9998779
vt 0.8751221 0.3334554
vt 0.9998779 0.3334554
vt 0.9998779 0.4998779
vt 0.8751221 0.4998779
vt 0.2501221 0.8334554
vt 0.3748779 0.8334554
vt 0.3748779 0.9998779
vt 0.2501221 0.9998779
vt 0.8751221 0.8334554
vt 0.9998779 0.8334554
vt 0.9998779 0.9998779
vt 0.8751221 0.9998779
vt 0.6251221 0.8334554
vt 0.7498779 0.8334554
vt 0.7498779 0.9998779
vt 0.6251221 0.9998779
vt 0.7501221 0.8334554
vt 0.8748779 0.8334554
vt 0.8748779 0.9998779
vt 0.7501221 0.9998779
vt 0.3751221 0.6667888
vt 0.4998779 0.6667888
vt 0.4998779 0.8332112
vt 0.3751221 0.8332112
vt 0.7501221 0.6667888
vt 0.8748779 0.6667888
vt 0.8748779 0.8332112
vt 0.7501221 0.8332112
vt 0.3751221 0.8334554
vt 0.4998779 0.8334554
vt 0.4998779 0.9998779
vt 0.3751221 0.9998779

# Normal
vn 0 0 -1

# Groups (Count = 1)
g mesh_[00]_[00]
f  1/1/1  2/2/1  3/3/1  4/4/1 
f  2/1/1  5/2/1  6/3/1  3/4/1 
f  5/1/1  7/2/1  8/3/1  6/4/1 
f  7/1/1  9/2/1  10/3/1  8/4/1 
f  9/1/1  11/2/1  12/3/1  10/4/1 
f  13/5/1  14/6/1  15/7/1  16/8/1 
f  14/9/1  17/10/1  18/11/1  15/12/1 
f  17/9/1  19/10/1  20/11/1  18/12/1 
f  19/9/1  21/10/1  22/11/1  20/12/1 
f  21/9/1  23/10/1  24/11/1  22/12/1 
f  23/9/1  25/10/1  26/11/1  24/12/1 
f  25/9/1  27/10/1  28/11/1  26/12/1 
f  27/9/1  29/10/1  30/11/1  28/12/1 
f  29/9/1  31/10/1  32/11/1  30/12/1 
f  31/13/1  33/14/1  34/15/1  32/16/1 
f  35/1/1  36/2/1  37/3/1  38/4/1 
f  39/1/1  40/2/1  2/3/1  1/4/1 
f  41/17/1  42/18/1  19/19/1  17/20/1 
f  43/17/1  44/18/1  29/19/1  27/20/1 
f  45/1/1  46/2/1  36/3/1  35/4/1 
f  47/1/1  48/2/1  40/3/1  39/4/1 
f  49/5/1  50/6/1  51/7/1  52/8/1 
f  50/9/1  53/10/1  54/11/1  51/12/1 
f  53/9/1  55/10/1  56/11/1  54/12/1 
f  55/9/1  57/10/1  58/11/1  56/12/1 
f  57/9/1  59/10/1  60/11/1  58/12/1 
f  59/9/1  61/10/1  62/11/1  60/12/1 
f  61/9/1  63/10/1  64/11/1  62/12/1 
f  63/9/1  65/10/1  66/11/1  64/12/1 
f  65/9/1  67/10/1  68/11/1  66/12/1 
f  67/9/1  69/10/1  70/11/1  68/12/1 
f  69/9/1  71/10/1  72/11/1  70/12/1 
f  71/13/1  73/14/1  74/15/1  72/16/1 
f  75/1/1  76/2/1  46/3/1  45/4/1 
f  77/1/1  78/2/1  48/3/1  47/4/1 
f  79/17/1  80/18/1  55/19/1  53/20/1 
f  81/1/1  82/2/1  59/3/1  57/4/1 
f  83/1/1  84/2/1  71/3/1  69/4/1 
f  85/1/1  86/2/1  76/3/1  75/4/1 
f  87/1/1  88/2/1  78/3/1  77/4/1 
f  89/5/1  90/6/1  91/7/1  92/8/1 
f  90/9/1  93/10/1  94/11/1  91/12/1 
f  93/9/1  95/10/1  96/11/1  94/12/1 
f  95/9/1  97/10/1  98/11/1  96/12/1 
f  97/9/1  99/10/1  100/11/1  98/12/1 
f  99/9/1  101/10/1  102/11/1  100/12/1 
f  101/13/1  103/14/1  104/15/1  102/16/1 
f  105/1/1  106/2/1  82/3/1  81/4/1 
f  107/1/1  108/2/1  86/3/1  85/4/1 
f  109/1/1  110/2/1  88/3/1  87/4/1 
f  111/17/1  112/18/1  93/19/1  90/20/1 
f  112/21/1  113/22/1  95/23/1  93/24/1 
f  113/21/1  114/22/1  97/23/1  95/24/1 
f  114/21/1  115/22/1  99/23/1  97/24/1 
f  116/1/1  117/2/1  106/3/1  105/4/1 
f  118/5/1  119/6/1  120/7/1  121/8/1 
f  119/9/1  122/10/1  123/11/1  120/12/1 
f  122/9/1  124/10/1  125/11/1  123/12/1 
f  124/9/1  126/10/1  127/11/1  125/12/1 
f  126/9/1  128/10/1  129/11/1  127/12/1 
f  128/9/1  130/10/1  131/11/1  129/12/1 
f  130/9/1  132/10/1  133/11/1  131/12/1 
f  132/9/1  134/10/1  135/11/1  133/12/1 
f  134/9/1  136/10/1  137/11/1  135/12/1 
f  136/9/1  138/10/1  139/11/1  137/12/1 
f  138/13/1  140/14/1  141/15/1  139/16/1 
f  142/1/1  143/2/1  108/3/1  107/4/1 
f  144/1/1  145/2/1  110/3/1  109/4/1 
f  146/1/1  147/2/1  117/3/1  116/4/1 
f  148/1/1  149/2/1  150/3/1  151/4/1 
f  149/1/1  152/2/1  153/3/1  150/4/1 
f  152/1/1  154/2/1  155/3/1  153/4/1 
f  154/1/1  156/2/1  157/3/1  155/4/1 
f  156/1/1  158/2/1  159/3/1  157/4/1 
f  158/1/1  160/2/1  161/3/1  159/4/1 
f  160/1/1  162/2/1  163/3/1  161/4/1 
f  162/1/1  164/2/1  165/3/1  163/4/1 
f  164/1/1  166/2/1  167/3/1  165/4/1 
f  168/1/1  169/2/1  124/3/1  122/4/1 
f  170/1/1  171/2/1  130/3/1  128/4/1 
f  172/1/1  173/2/1  143/3/1  142/4/1 
f  174/1/1  175/2/1  145/3/1  144/4/1 
f  176/1/1  177/2/1  147/3/1  146/4/1 
f  178/1/1  179/2/1  152/3/1  149/4/1 
f  180/1/1  181/2/1  169/3/1  168/4/1 
f  182/1/1  183/2/1  173/3/1  172/4/1 
f  184/1/1  185/2/1  175/3/1  174/4/1 
f  186/1/1  187/2/1  177/3/1  176/4/1 
f  188/1/1  189/2/1  181/3/1  180/4/1 
f  190/1/1  191/2/1  183/3/1  182/4/1 
f  192/1/1  193/2/1  185/3/1  184/4/1 
f  193/9/1  194/10/1  195/11/1  185/12/1 
f  194/9/1  196/10/1  197/11/1  195/12/1 
f  196/13/1  198/14/1  199/15/1  197/16/1 
f  200/5/1  201/6/1  202/7/1  203/8/1 
f  201/9/1  204/10/1  205/11/1  202/12/1 
f  204/9/1  206/10/1  207/11/1  205/12/1 
f  206/9/1  208/10/1  209/11/1  207/12/1 
f  208/13/1  210/14/1  211/15/1  209/16/1 
f  212/1/1  213/2/1  187/3/1  186/4/1 
f  214/1/1  215/2/1  189/3/1  188/4/1 
f  215/1/1  216/2/1  217/3/1  189/4/1 
f  216/1/1  218/2/1  219/3/1  217/4/1 
f  218/1/1  220/2/1  221/3/1  219/4/1 
f  220/1/1  222/2/1  223/3/1  221/4/1 
f  222/1/1  224/2/1  225/3/1  223/4/1 
f  224/1/1  226/2/1  227/3/1  225/4/1 
f  228/5/1  229/6/1  230/7/1  231/8/1 
f  229/9/1  232/10/1  233/11/1  230/12/1 
f  232/9/1  234/10/1  235/11/1  233/12/1 
f  234/9/1  236/10/1  237/11/1  235/12/1 
f  236/9/1  238/10/1  239/11/1  237/12/1 
f  238/9/1  240/10/1  190/11/1  239/12/1 
f  240/1/1  241/2/1  191/3/1  190/4/1 
f  242/1/1  243/2/1  193/3/1  192/4/1 
f  244/17/1  245/18/1  196/19/1  194/20/1 
f  246/21/1  247/22/1  204/23/1  201/24/1 
f  247/21/1  248/22/1  206/23/1  204/24/1 
f  248/21/1  249/22/1  208/23/1  206/24/1 
f  250/1/1  251/2/1  252/3/1  253/4/1 
f  251/1/1  254/2/1  255/3/1  252/4/1 
f  254/1/1  256/2/1  212/3/1  255/4/1 
f  256/1/1  257/2/1  213/3/1  212/4/1 
f  258/25/1  259/26/1  260/27/1  261/28/1 
f  262/1/1  263/2/1  241/3/1  240/4/1 
f  264/1/1  265/2/1  243/3/1  242/4/1 
f  266/1/1  267/2/1  259/3/1  258/4/1 
f  267/1/1  268/2/1  269/3/1  259/4/1 
f  268/1/1  270/2/1  271/3/1  269/4/1 
f  270/1/1  272/2/1  273/3/1  271/4/1 
f  272/1/1  274/2/1  275/3/1  273/4/1 
f  274/1/1  276/2/1  277/3/1  275/4/1 
f  276/1/1  278/2/1  279/3/1  277/4/1 
f  278/1/1  280/2/1  281/3/1  279/4/1 
f  280/1/1  282/2/1  283/3/1  281/4/1 
f  282/1/1  284/2/1  285/3/1  283/4/1 
f  284/25/1  286/26/1  287/27/1  285/28/1 
f  288/1/1  289/2/1  263/3/1  262/4/1 
f  290/1/1  291/2/1  265/3/1  264/4/1 
f  292/1/1  293/2/1  294/3/1  295/4/1 
f  293/1/1  296/2/1  297/3/1  294/4/1 
f  296/1/1  298/2/1  299/3/1  297/4/1 
f  298/1/1  300/2/1  301/3/1  299/4/1 
f  302/1/1  303/2/1  274/3/1  272/4/1 
f  303/1/1  304/2/1  276/3/1  274/4/1 
f  304/1/1  305/2/1  278/3/1  276/4/1 
f  305/1/1  306/2/1  280/3/1  278/4/1 
f  306/1/1  307/2/1  282/3/1  280/4/1 
f  307/1/1  308/2/1  284/3/1  282/4/1 
f  308/1/1  309/2/1  286/3/1  284/4/1 
f  309/25/1  310/26/1  311/27/1  286/28/1 
f  312/1/1  313/2/1  289/3/1  288/4/1 
f  314/1/1  315/2/1  291/3/1  290/4/1 
f  316/17/1  317/18/1  293/19/1  292/20/1 
f  318/1/1  319/2/1  303/3/1  302/4/1 
f  319/1/1  320/2/1  304/3/1  303/4/1 
f  320/1/1  321/2/1  305/3/1  304/4/1 
f  321/1/1  322/2/1  306/3/1  305/4/1 
f  322/1/1  323/2/1  307/3/1  306/4/1 
f  323/1/1  324/2/1  308/3/1  307/4/1 
f  324/1/1  325/2/1  309/3/1  308/4/1 
f  325/1/1  326/2/1  310/3/1  309/4/1 
f  326/25/1  327/26/1  328/27/1  310/28/1 
f  329/1/1  330/2/1  313/3/1  312/4/1 
f  331/1/1  332/2/1  315/3/1  314/4/1 
f  333/1/1  334/2/1  319/3/1  318/4/1 
f  334/1/1  335/2/1  320/3/1  319/4/1 
f  336/1/1  337/2/1  322/3/1  321/4/1 
f  337/1/1  338/2/1  323/3/1  322/4/1 
f  339/1/1  340/2/1  330/3/1  329/4/1 
f  341/1/1  342/2/1  332/3/1  331/4/1 
f  343/1/1  344/2/1  334/3/1  333/4/1 
f  344/1/1  345/2/1  335/3/1  334/4/1 
f  346/1/1  347/2/1  337/3/1  336/4/1 
f  347/1/1  348/2/1  338/3/1  337/4/1 
f  349/29/1  350/30/1  351/31/1  352/32/1 
f  350/33/1  353/34/1  354/35/1  351/36/1 
f  355/1/1  356/2/1  340/3/1  339/4/1 
f  357/1/1  358/2/1  342/3/1  341/4/1 
f  358/1/1  359/2/1  360/3/1  342/4/1 
f  359/1/1  361/2/1  362/3/1  360/4/1 
f  361/37/1  363/38/1  364/39/1  362/40/1 
f  365/1/1  366/2/1  344/3/1  343/4/1 
f  366/1/1  367/2/1  345/3/1  344/4/1 
f  368/1/1  369/2/1  347/3/1  346/4/1 
f  369/1/1  370/2/1  348/3/1  347/4/1 
f  371/29/1  372/30/1  349/31/1  373/32/1 
f  372/41/1  374/42/1  350/43/1  349/44/1 
f  374/41/1  375/42/1  353/43/1  350/44/1 
f  376/1/1  377/2/1  356/3/1  355/4/1 
f  378/1/1  379/2/1  358/3/1  357/4/1 
f  380/29/1  381/30/1  382/31/1  383/32/1 
f  384/25/1  385/26/1  386/27/1  387/28/1 
f  388/29/1  389/30/1  371/31/1  390/32/1 
f  389/41/1  391/42/1  372/43/1  371/44/1 
f  391/41/1  392/42/1  374/43/1  372/44/1 
f  392/41/1  393/42/1  375/43/1  374/44/1 
f  394/1/1  395/2/1  377/3/1  376/4/1 
f  396/1/1  397/2/1  379/3/1  378/4/1 
f  398/29/1  399/30/1  380/31/1  400/32/1 
f  399/41/1  401/42/1  381/43/1  380/44/1 
f  401/45/1  402/46/1  403/47/1  381/48/1 
f  402/45/1  404/46/1  405/47/1  403/48/1 
f  404/45/1  406/46/1  407/47/1  405/48/1 
f  406/45/1  408/46/1  409/47/1  407/48/1 
f  408/45/1  410/46/1  411/47/1  409/48/1 
f  410/45/1  412/46/1  413/47/1  411/48/1 
f  412/45/1  414/46/1  415/47/1  413/48/1 
f  414/45/1  416/46/1  384/47/1  415/48/1 
f  416/41/1  417/42/1  385/43/1  384/44/1 
f  417/25/1  418/26/1  419/27/1  385/28/1 
f  420/29/1  421/30/1  388/31/1  422/32/1 
f  421/41/1  423/42/1  389/43/1  388/44/1 
f  423/41/1  424/42/1  391/43/1  389/44/1 
f  424/41/1  425/42/1  392/43/1  391/44/1 
f  425/41/1  426/42/1  393/43/1  392/44/1 
f  426/45/1  427/46/1  428/47/1  393/48/1 
f  427/45/1  429/46/1  430/47/1  428/48/1 
f  429/45/1  431/46/1  432/47/1  430/48/1 
f  431/45/1  433/46/1  434/47/1  432/48/1 
f  433/45/1  435/46/1  436/47/1  434/48/1 
f  435/45/1  437/46/1  438/47/1  436/48/1 
f  437/45/1  439/46/1  440/47/1  438/48/1 
f  439/45/1  441/46/1  442/47/1  440/48/1 
f  441/45/1  443/46/1  444/47/1  442/48/1 
f  445/45/1  446/46/1  447/47/1  448/48/1 
f  446/45/1  449/46/1  394/47/1  447/48/1 
f  449/1/1  450/2/1  395/3/1  394/4/1 
f  451/1/1  452/2/1  397/3/1  396/4/1 
f  452/1/1  453/2/1  454/3/1  397/4/1 
f  453/1/1  455/2/1  456/3/1  454/4/1 
f  455/1/1  457/2/1  458/3/1  456/4/1 
f  457/1/1  459/2/1  460/3/1  458/4/1 
f  459/1/1  461/2/1  462/3/1  460/4/1 
f  461/1/1  463/2/1  464/3/1  462/4/1 
f  463/1/1  465/2/1  398/3/1  464/4/1 
f  465/1/1  466/2/1  399/3/1  398/4/1 
f  466/1/1  467/2/1  401/3/1  399/4/1 
f  467/1/1  468/2/1  402/3/1  401/4/1 
f  468/1/1  469/2/1  404/3/1  402/4/1 
f  469/1/1  470/2/1  406/3/1  404/4/1 
f  470/1/1  471/2/1  408/3/1  406/4/1 
f  471/1/1  472/2/1  410/3/1  408/4/1 
f  472/1/1  473/2/1  412/3/1  410/4/1 
f  473/1/1  474/2/1  414/3/1  412/4/1 
f  474/1/1  475/2/1  416/3/1  414/4/1 
f  475/1/1  476/2/1  417/3/1  416/4/1 
f  476/1/1  477/2/1  418/3/1  417/4/1 
f  477/1/1  478/2/1  479/3/1  418/4/1 
f  478/1/1  480/2/1  481/3/1  479/4/1 
f  480/1/1  482/2/1  483/3/1  481/4/1 
f  482/1/1  484/2/1  485/3/1  483/4/1 
f  484/1/1  486/2/1  487/3/1  485/4/1 
f  486/1/1  488/2/1  489/3/1  487/4/1 
f  488/1/1  490/2/1  491/3/1  489/4/1 
f  490/1/1  492/2/1  493/3/1  491/4/1 
f  492/1/1  494/2/1  495/3/1  493/4/1 
f  494/1/1  496/2/1  420/3/1  495/4/1 
f  496/1/1  497/2/1  421/3/1  420/4/1 
f  497/1/1  498/2/1  423/3/1  421/4/1 
f  498/1/1  499/2/1  424/3/1  423/4/1 
f  499/1/1  500/2/1  425/3/1  424/4/1 
f  500/1/1  501/2/1  426/3/1  425/4/1 
f  501/1/1  502/2/1  427/3/1  426/4/1 
f  502/1/1  503/2/1  429/3/1  427/4/1 
f  503/1/1  504/2/1  431/3/1  429/4/1 
f  504/1/1  505/2/1  433/3/1  431/4/1 
f  505/1/1  506/2/1  435/3/1  433/4/1 
f  506/1/1  507/2/1  437/3/1  435/4/1 
f  507/1/1  508/2/1  439/3/1  437/4/1 
f  508/1/1  509/2/1  441/3/1  439/4/1 
f  509/1/1  510/2/1  443/3/1  441/4/1 
f  510/1/1  511/2/1  512/3/1  443/4/1 
f  511/1/1  513/2/1  514/3/1  512/4/1 
f  513/1/1  515/2/1  445/3/1  514/4/1 
f  515/1/1  516/2/1  446/3/1  445/4/1 
f  516/1/1  517/2/1  449/3/1  446/4/1 
f  517/1/1  518/2/1  450/3/1  449/4/1 
