# Wavefront OBJ file automatically generated by Tiled2Unity

# Vertices (Count = 449)
v 0 -32 0
v -32 -32 0
v -32 0 0
v 0 0 0
v -64 -32 0
v -64 0 0
v -96 -32 0
v -96 0 0
v -128 -32 0
v -128 0 0
v -160 -32 0
v -160 0 0
v -192 -32 0
v -192 0 0
v -224 -32 0
v -224 0 0
v -256 -32 0
v -256 0 0
v -288 -32 0
v -288 0 0
v -320 -32 0
v -320 0 0
v -352 -32 0
v -352 0 0
v -384 -32 0
v -384 0 0
v -416 -32 0
v -416 0 0
v -448 -32 0
v -448 0 0
v -480 -32 0
v -480 0 0
v -512 -32 0
v -512 0 0
v -544 -32 0
v -544 0 0
v -576 -32 0
v -576 0 0
v -608 -32 0
v -608 0 0
v -640 -32 0
v -640 0 0
v -672 -32 0
v -672 0 0
v -704 -32 0
v -704 0 0
v -736 -32 0
v -736 0 0
v -768 -32 0
v -768 0 0
v -800 -32 0
v -800 0 0
v -832 -32 0
v -832 0 0
v -864 -32 0
v -864 0 0
v -896 -32 0
v -896 0 0
v -928 -32 0
v -928 0 0
v -960 -32 0
v -960 0 0
v 0 -64 0
v -32 -64 0
v -64 -64 0
v -96 -64 0
v -128 -64 0
v -352 -64 0
v -384 -64 0
v -416 -64 0
v -448 -64 0
v -480 -64 0
v -512 -64 0
v -544 -64 0
v -576 -64 0
v -608 -64 0
v -640 -64 0
v -672 -64 0
v -704 -64 0
v -864 -64 0
v -896 -64 0
v 0 -96 0
v -32 -96 0
v -64 -96 0
v -96 -96 0
v -128 -96 0
v -864 -96 0
v -896 -96 0
v 0 -128 0
v -32 -128 0
v -64 -128 0
v -96 -128 0
v -128 -128 0
v -864 -128 0
v -896 -128 0
v 0 -160 0
v -32 -160 0
v -64 -160 0
v -96 -160 0
v -128 -160 0
v -224 -160 0
v -256 -160 0
v -256 -128 0
v -224 -128 0
v -288 -160 0
v -288 -128 0
v -320 -160 0
v -320 -128 0
v -352 -160 0
v -352 -128 0
v -384 -160 0
v -384 -128 0
v -416 -160 0
v -416 -128 0
v -448 -160 0
v -448 -128 0
v -480 -160 0
v -480 -128 0
v -512 -160 0
v -512 -128 0
v -544 -160 0
v -544 -128 0
v -576 -160 0
v -576 -128 0
v -608 -160 0
v -608 -128 0
v -640 -160 0
v -640 -128 0
v -672 -160 0
v -672 -128 0
v -704 -160 0
v -704 -128 0
v -736 -160 0
v -736 -128 0
v -768 -160 0
v -800 -160 0
v -800 -128 0
v -768 -128 0
v -832 -160 0
v -832 -128 0
v -864 -160 0
v -896 -160 0
v 0 -192 0
v -32 -192 0
v -64 -192 0
v -96 -192 0
v -128 -192 0
v -224 -192 0
v -256 -192 0
v -288 -192 0
v -320 -192 0
v -352 -192 0
v -384 -192 0
v -416 -192 0
v -448 -192 0
v -480 -192 0
v -512 -192 0
v -544 -192 0
v -576 -192 0
v -608 -192 0
v -640 -192 0
v -672 -192 0
v -704 -192 0
v -832 -192 0
v -864 -192 0
v -896 -192 0
v 0 -224 0
v -32 -224 0
v -64 -224 0
v -96 -224 0
v -128 -224 0
v -864 -224 0
v -896 -224 0
v 0 -256 0
v -32 -256 0
v -64 -256 0
v -96 -256 0
v -128 -256 0
v -416 -256 0
v -448 -256 0
v -448 -224 0
v -416 -224 0
v -736 -256 0
v -768 -256 0
v -768 -224 0
v -736 -224 0
v -800 -256 0
v -800 -224 0
v -832 -256 0
v -832 -224 0
v -864 -256 0
v -896 -256 0
v 0 -288 0
v -32 -288 0
v -64 -288 0
v -96 -288 0
v -128 -288 0
v -160 -288 0
v -160 -256 0
v -192 -288 0
v -192 -256 0
v -224 -288 0
v -224 -256 0
v -256 -288 0
v -256 -256 0
v -288 -288 0
v -288 -256 0
v -320 -288 0
v -320 -256 0
v -352 -288 0
v -352 -256 0
v -384 -288 0
v -384 -256 0
v -416 -288 0
v -448 -288 0
v -480 -288 0
v -480 -256 0
v -512 -288 0
v -512 -256 0
v -544 -288 0
v -544 -256 0
v -576 -288 0
v -576 -256 0
v -608 -288 0
v -608 -256 0
v -640 -288 0
v -640 -256 0
v -672 -288 0
v -672 -256 0
v -704 -288 0
v -704 -256 0
v -736 -288 0
v -768 -288 0
v -800 -288 0
v -864 -288 0
v -896 -288 0
v 0 -320 0
v -32 -320 0
v -64 -320 0
v -96 -320 0
v -128 -320 0
v -352 -320 0
v -384 -320 0
v -416 -320 0
v -448 -320 0
v -608 -320 0
v -640 -320 0
v -672 -320 0
v -704 -320 0
v -736 -320 0
v -768 -320 0
v -800 -320 0
v -832 -320 0
v -832 -288 0
v -864 -320 0
v -896 -320 0
v 0 -352 0
v -32 -352 0
v -64 -352 0
v -96 -352 0
v -128 -352 0
v -352 -352 0
v -384 -352 0
v -416 -352 0
v -448 -352 0
v -608 -352 0
v -640 -352 0
v -672 -352 0
v -704 -352 0
v -864 -352 0
v -896 -352 0
v 0 -384 0
v -32 -384 0
v -64 -384 0
v -96 -384 0
v -128 -384 0
v -352 -384 0
v -384 -384 0
v -416 -384 0
v -448 -384 0
v -608 -384 0
v -640 -384 0
v -672 -384 0
v -704 -384 0
v -864 -384 0
v -896 -384 0
v 0 -416 0
v -32 -416 0
v -64 -416 0
v -96 -416 0
v -128 -416 0
v -352 -416 0
v -384 -416 0
v -416 -416 0
v -448 -416 0
v -608 -416 0
v -640 -416 0
v -672 -416 0
v -704 -416 0
v -864 -416 0
v -896 -416 0
v 0 -448 0
v -32 -448 0
v -64 -448 0
v -96 -448 0
v -128 -448 0
v -352 -448 0
v -384 -448 0
v -416 -448 0
v -448 -448 0
v -480 -448 0
v -480 -416 0
v -512 -448 0
v -512 -416 0
v -544 -448 0
v -544 -416 0
v -576 -448 0
v -576 -416 0
v -608 -448 0
v -640 -448 0
v -672 -448 0
v -704 -448 0
v -864 -448 0
v -896 -448 0
v 0 -480 0
v -32 -480 0
v -64 -480 0
v -96 -480 0
v -128 -480 0
v -352 -480 0
v -384 -480 0
v -416 -480 0
v -448 -480 0
v -480 -480 0
v -512 -480 0
v -544 -480 0
v -576 -480 0
v -608 -480 0
v -640 -480 0
v -672 -480 0
v -704 -480 0
v -736 -480 0
v -736 -448 0
v -768 -480 0
v -768 -448 0
v -800 -480 0
v -800 -448 0
v -832 -480 0
v -832 -448 0
v -864 -480 0
v -896 -480 0
v 0 -512 0
v -32 -512 0
v -352 -512 0
v -384 -512 0
v -416 -512 0
v -448 -512 0
v -608 -512 0
v -640 -512 0
v -672 -512 0
v -704 -512 0
v -768 -512 0
v -800 -512 0
v -864 -512 0
v -896 -512 0
v 0 -544 0
v -32 -544 0
v -64 -544 0
v -96 -544 0
v -96 -512 0
v -64 -512 0
v -352 -544 0
v -384 -544 0
v -416 -544 0
v -448 -544 0
v -480 -544 0
v -512 -544 0
v -512 -512 0
v -480 -512 0
v -544 -544 0
v -544 -512 0
v -576 -544 0
v -576 -512 0
v -608 -544 0
v -640 -544 0
v -672 -544 0
v -704 -544 0
v -768 -544 0
v -800 -544 0
v -864 -544 0
v -896 -544 0
v 0 -576 0
v -32 -576 0
v -64 -576 0
v -96 -576 0
v -352 -576 0
v -384 -576 0
v -416 -576 0
v -448 -576 0
v -480 -576 0
v -512 -576 0
v -544 -576 0
v -576 -576 0
v -608 -576 0
v -640 -576 0
v -672 -576 0
v -704 -576 0
v -768 -576 0
v -800 -576 0
v -864 -576 0
v -896 -576 0
v 0 -608 0
v -32 -608 0
v -64 -608 0
v -96 -608 0
v -128 -608 0
v -128 -576 0
v -160 -608 0
v -160 -576 0
v -192 -608 0
v -192 -576 0
v -224 -608 0
v -224 -576 0
v -256 -608 0
v -256 -576 0
v -288 -608 0
v -288 -576 0
v -320 -608 0
v -320 -576 0
v -352 -608 0
v -384 -608 0
v -416 -608 0
v -448 -608 0
v -480 -608 0
v -512 -608 0
v -544 -608 0
v -576 -608 0
v -608 -608 0
v -640 -608 0
v -672 -608 0
v -704 -608 0
v -736 -608 0
v -736 -576 0
v -768 -608 0
v -800 -608 0
v -832 -608 0
v -832 -576 0
v -864 -608 0
v -896 -608 0

# Texture Coorindates (Count = 24)
vt 0.1251221 0.6667888
vt 0.2498779 0.6667888
vt 0.2498779 0.8332112
vt 0.1251221 0.8332112
vt 0.5001221 0.2501221
vt 0.7498779 0.2501221
vt 0.7498779 0.4998779
vt 0.5001221 0.4998779
vt 0.2501221 0.8334554
vt 0.3748779 0.8334554
vt 0.3748779 0.9998779
vt 0.2501221 0.9998779
vt 0.3751221 0.8334554
vt 0.4998779 0.8334554
vt 0.4998779 0.9998779
vt 0.3751221 0.9998779
vt 0.2501221 0.0001220703
vt 0.4998779 0.0001220703
vt 0.4998779 0.2498779
vt 0.2501221 0.2498779
vt 0.2501221 0.2501221
vt 0.4998779 0.2501221
vt 0.4998779 0.4998779
vt 0.2501221 0.4998779

# Normal
vn 0 0 -1

# Groups (Count = 2)
g mesh_[00]_[00]
f  1/1/1  2/2/1  3/3/1  4/4/1 
f  2/1/1  5/2/1  6/3/1  3/4/1 
f  5/1/1  7/2/1  8/3/1  6/4/1 
f  7/1/1  9/2/1  10/3/1  8/4/1 
f  9/1/1  11/2/1  12/3/1  10/4/1 
f  11/1/1  13/2/1  14/3/1  12/4/1 
f  13/1/1  15/2/1  16/3/1  14/4/1 
f  15/1/1  17/2/1  18/3/1  16/4/1 
f  17/1/1  19/2/1  20/3/1  18/4/1 
f  19/1/1  21/2/1  22/3/1  20/4/1 
f  21/1/1  23/2/1  24/3/1  22/4/1 
f  23/1/1  25/2/1  26/3/1  24/4/1 
f  25/1/1  27/2/1  28/3/1  26/4/1 
f  27/1/1  29/2/1  30/3/1  28/4/1 
f  29/1/1  31/2/1  32/3/1  30/4/1 
f  31/1/1  33/2/1  34/3/1  32/4/1 
f  33/1/1  35/2/1  36/3/1  34/4/1 
f  35/1/1  37/2/1  38/3/1  36/4/1 
f  37/1/1  39/2/1  40/3/1  38/4/1 
f  39/1/1  41/2/1  42/3/1  40/4/1 
f  41/1/1  43/2/1  44/3/1  42/4/1 
f  43/1/1  45/2/1  46/3/1  44/4/1 
f  45/1/1  47/2/1  48/3/1  46/4/1 
f  47/1/1  49/2/1  50/3/1  48/4/1 
f  49/1/1  51/2/1  52/3/1  50/4/1 
f  51/1/1  53/2/1  54/3/1  52/4/1 
f  53/1/1  55/2/1  56/3/1  54/4/1 
f  55/1/1  57/2/1  58/3/1  56/4/1 
f  63/1/1  64/2/1  2/3/1  1/4/1 
f  64/1/1  65/2/1  5/3/1  2/4/1 
f  65/1/1  66/2/1  7/3/1  5/4/1 
f  66/1/1  67/2/1  9/3/1  7/4/1 
f  68/9/1  69/10/1  25/11/1  23/12/1 
f  69/9/1  70/10/1  27/11/1  25/12/1 
f  70/9/1  71/10/1  29/11/1  27/12/1 
f  71/9/1  72/10/1  31/11/1  29/12/1 
f  72/9/1  73/10/1  33/11/1  31/12/1 
f  73/9/1  74/10/1  35/11/1  33/12/1 
f  74/9/1  75/10/1  37/11/1  35/12/1 
f  75/9/1  76/10/1  39/11/1  37/12/1 
f  76/9/1  77/10/1  41/11/1  39/12/1 
f  77/9/1  78/10/1  43/11/1  41/12/1 
f  78/9/1  79/10/1  45/11/1  43/12/1 
f  80/1/1  81/2/1  57/3/1  55/4/1 
f  82/1/1  83/2/1  64/3/1  63/4/1 
f  83/1/1  84/2/1  65/3/1  64/4/1 
f  84/1/1  85/2/1  66/3/1  65/4/1 
f  85/1/1  86/2/1  67/3/1  66/4/1 
f  87/1/1  88/2/1  81/3/1  80/4/1 
f  89/1/1  90/2/1  83/3/1  82/4/1 
f  90/1/1  91/2/1  84/3/1  83/4/1 
f  91/1/1  92/2/1  85/3/1  84/4/1 
f  92/1/1  93/2/1  86/3/1  85/4/1 
f  94/1/1  95/2/1  88/3/1  87/4/1 
f  96/1/1  97/2/1  90/3/1  89/4/1 
f  97/1/1  98/2/1  91/3/1  90/4/1 
f  98/1/1  99/2/1  92/3/1  91/4/1 
f  99/1/1  100/2/1  93/3/1  92/4/1 
f  101/1/1  102/2/1  103/3/1  104/4/1 
f  102/1/1  105/2/1  106/3/1  103/4/1 
f  105/1/1  107/2/1  108/3/1  106/4/1 
f  107/1/1  109/2/1  110/3/1  108/4/1 
f  109/1/1  111/2/1  112/3/1  110/4/1 
f  111/1/1  113/2/1  114/3/1  112/4/1 
f  113/1/1  115/2/1  116/3/1  114/4/1 
f  115/1/1  117/2/1  118/3/1  116/4/1 
f  117/1/1  119/2/1  120/3/1  118/4/1 
f  119/1/1  121/2/1  122/3/1  120/4/1 
f  121/1/1  123/2/1  124/3/1  122/4/1 
f  123/1/1  125/2/1  126/3/1  124/4/1 
f  125/1/1  127/2/1  128/3/1  126/4/1 
f  127/1/1  129/2/1  130/3/1  128/4/1 
f  129/1/1  131/2/1  132/3/1  130/4/1 
f  131/1/1  133/2/1  134/3/1  132/4/1 
f  135/1/1  136/2/1  137/3/1  138/4/1 
f  136/1/1  139/2/1  140/3/1  137/4/1 
f  139/1/1  141/2/1  94/3/1  140/4/1 
f  141/1/1  142/2/1  95/3/1  94/4/1 
f  143/1/1  144/2/1  97/3/1  96/4/1 
f  144/1/1  145/2/1  98/3/1  97/4/1 
f  145/1/1  146/2/1  99/3/1  98/4/1 
f  146/1/1  147/2/1  100/3/1  99/4/1 
f  148/9/1  149/10/1  102/11/1  101/12/1 
f  149/9/1  150/10/1  105/11/1  102/12/1 
f  150/9/1  151/10/1  107/11/1  105/12/1 
f  151/9/1  152/10/1  109/11/1  107/12/1 
f  152/9/1  153/10/1  111/11/1  109/12/1 
f  153/9/1  154/10/1  113/11/1  111/12/1 
f  154/9/1  155/10/1  115/11/1  113/12/1 
f  155/9/1  156/10/1  117/11/1  115/12/1 
f  156/9/1  157/10/1  119/11/1  117/12/1 
f  157/9/1  158/10/1  121/11/1  119/12/1 
f  158/9/1  159/10/1  123/11/1  121/12/1 
f  159/9/1  160/10/1  125/11/1  123/12/1 
f  160/9/1  161/10/1  127/11/1  125/12/1 
f  161/9/1  162/10/1  129/11/1  127/12/1 
f  162/9/1  163/10/1  131/11/1  129/12/1 
f  164/9/1  165/10/1  141/11/1  139/12/1 
f  165/1/1  166/2/1  142/3/1  141/4/1 
f  167/1/1  168/2/1  144/3/1  143/4/1 
f  168/1/1  169/2/1  145/3/1  144/4/1 
f  169/1/1  170/2/1  146/3/1  145/4/1 
f  170/1/1  171/2/1  147/3/1  146/4/1 
f  172/1/1  173/2/1  166/3/1  165/4/1 
f  174/1/1  175/2/1  168/3/1  167/4/1 
f  175/1/1  176/2/1  169/3/1  168/4/1 
f  176/1/1  177/2/1  170/3/1  169/4/1 
f  177/1/1  178/2/1  171/3/1  170/4/1 
f  179/13/1  180/14/1  181/15/1  182/16/1 
f  183/1/1  184/2/1  185/3/1  186/4/1 
f  184/1/1  187/2/1  188/3/1  185/4/1 
f  191/1/1  192/2/1  173/3/1  172/4/1 
f  193/1/1  194/2/1  175/3/1  174/4/1 
f  194/1/1  195/2/1  176/3/1  175/4/1 
f  195/1/1  196/2/1  177/3/1  176/4/1 
f  196/1/1  197/2/1  178/3/1  177/4/1 
f  197/1/1  198/2/1  199/3/1  178/4/1 
f  198/1/1  200/2/1  201/3/1  199/4/1 
f  200/1/1  202/2/1  203/3/1  201/4/1 
f  202/1/1  204/2/1  205/3/1  203/4/1 
f  204/1/1  206/2/1  207/3/1  205/4/1 
f  206/1/1  208/2/1  209/3/1  207/4/1 
f  208/1/1  210/2/1  211/3/1  209/4/1 
f  214/1/1  215/2/1  180/3/1  179/4/1 
f  235/1/1  236/2/1  192/3/1  191/4/1 
f  237/1/1  238/2/1  194/3/1  193/4/1 
f  238/1/1  239/2/1  195/3/1  194/4/1 
f  239/1/1  240/2/1  196/3/1  195/4/1 
f  240/1/1  241/2/1  197/3/1  196/4/1 
f  244/1/1  245/2/1  215/3/1  214/4/1 
f  250/1/1  251/2/1  233/3/1  232/4/1 
f  251/1/1  252/2/1  234/3/1  233/4/1 
f  252/1/1  253/2/1  254/3/1  234/4/1 
f  253/1/1  255/2/1  235/3/1  254/4/1 
f  255/1/1  256/2/1  236/3/1  235/4/1 
f  257/1/1  258/2/1  238/3/1  237/4/1 
f  258/1/1  259/2/1  239/3/1  238/4/1 
f  259/1/1  260/2/1  240/3/1  239/4/1 
f  260/1/1  261/2/1  241/3/1  240/4/1 
f  264/1/1  265/2/1  245/3/1  244/4/1 
f  270/1/1  271/2/1  256/3/1  255/4/1 
f  272/1/1  273/2/1  258/3/1  257/4/1 
f  273/1/1  274/2/1  259/3/1  258/4/1 
f  274/1/1  275/2/1  260/3/1  259/4/1 
f  275/1/1  276/2/1  261/3/1  260/4/1 
f  279/1/1  280/2/1  265/3/1  264/4/1 
f  285/1/1  286/2/1  271/3/1  270/4/1 
f  287/1/1  288/2/1  273/3/1  272/4/1 
f  288/1/1  289/2/1  274/3/1  273/4/1 
f  289/1/1  290/2/1  275/3/1  274/4/1 
f  290/1/1  291/2/1  276/3/1  275/4/1 
f  294/1/1  295/2/1  280/3/1  279/4/1 
f  300/1/1  301/2/1  286/3/1  285/4/1 
f  302/1/1  303/2/1  288/3/1  287/4/1 
f  303/1/1  304/2/1  289/3/1  288/4/1 
f  304/1/1  305/2/1  290/3/1  289/4/1 
f  305/1/1  306/2/1  291/3/1  290/4/1 
f  309/1/1  310/2/1  295/3/1  294/4/1 
f  310/13/1  311/14/1  312/15/1  295/16/1 
f  311/13/1  313/14/1  314/15/1  312/16/1 
f  313/13/1  315/14/1  316/15/1  314/16/1 
f  315/13/1  317/14/1  318/15/1  316/16/1 
f  317/13/1  319/14/1  296/15/1  318/16/1 
f  319/13/1  320/14/1  297/15/1  296/16/1 
f  323/1/1  324/2/1  301/3/1  300/4/1 
f  325/1/1  326/2/1  303/3/1  302/4/1 
f  326/1/1  327/2/1  304/3/1  303/4/1 
f  327/1/1  328/2/1  305/3/1  304/4/1 
f  328/1/1  329/2/1  306/3/1  305/4/1 
f  332/1/1  333/2/1  310/3/1  309/4/1 
f  333/1/1  334/2/1  311/3/1  310/4/1 
f  334/1/1  335/2/1  313/3/1  311/4/1 
f  335/1/1  336/2/1  315/3/1  313/4/1 
f  336/1/1  337/2/1  317/3/1  315/4/1 
f  337/1/1  338/2/1  319/3/1  317/4/1 
f  338/1/1  339/2/1  320/3/1  319/4/1 
f  350/1/1  351/2/1  324/3/1  323/4/1 
f  352/1/1  353/2/1  326/3/1  325/4/1 
f  358/1/1  359/2/1  339/3/1  338/4/1 
f  364/1/1  365/2/1  351/3/1  350/4/1 
f  366/1/1  367/2/1  353/3/1  352/4/1 
f  384/1/1  385/2/1  359/3/1  358/4/1 
f  390/1/1  391/2/1  365/3/1  364/4/1 
f  392/1/1  393/2/1  367/3/1  366/4/1 
f  404/1/1  405/2/1  385/3/1  384/4/1 
f  410/1/1  411/2/1  391/3/1  390/4/1 
f  412/1/1  413/2/1  393/3/1  392/4/1 
f  413/1/1  414/2/1  394/3/1  393/4/1 
f  414/1/1  415/2/1  395/3/1  394/4/1 
f  415/1/1  416/2/1  417/3/1  395/4/1 
f  416/1/1  418/2/1  419/3/1  417/4/1 
f  418/1/1  420/2/1  421/3/1  419/4/1 
f  420/1/1  422/2/1  423/3/1  421/4/1 
f  422/1/1  424/2/1  425/3/1  423/4/1 
f  424/1/1  426/2/1  427/3/1  425/4/1 
f  426/1/1  428/2/1  429/3/1  427/4/1 
f  428/1/1  430/2/1  396/3/1  429/4/1 
f  430/1/1  431/2/1  397/3/1  396/4/1 
f  431/1/1  432/2/1  398/3/1  397/4/1 
f  432/1/1  433/2/1  399/3/1  398/4/1 
f  433/1/1  434/2/1  400/3/1  399/4/1 
f  434/1/1  435/2/1  401/3/1  400/4/1 
f  435/1/1  436/2/1  402/3/1  401/4/1 
f  436/1/1  437/2/1  403/3/1  402/4/1 
f  437/1/1  438/2/1  404/3/1  403/4/1 
f  438/1/1  439/2/1  405/3/1  404/4/1 
f  439/1/1  440/2/1  406/3/1  405/4/1 
f  440/1/1  441/2/1  407/3/1  406/4/1 
f  441/1/1  442/2/1  443/3/1  407/4/1 
f  442/1/1  444/2/1  408/3/1  443/4/1 
f  444/1/1  445/2/1  409/3/1  408/4/1 
f  445/1/1  446/2/1  447/3/1  409/4/1 
f  446/1/1  448/2/1  410/3/1  447/4/1 
f  448/1/1  449/2/1  411/3/1  410/4/1 
g mesh_[00]_[01]
f  57/5/1  59/6/1  60/7/1  58/8/1 
f  59/5/1  61/6/1  62/7/1  60/8/1 
f  187/17/1  189/18/1  190/19/1  188/20/1 
f  189/17/1  191/18/1  172/19/1  190/20/1 
f  210/5/1  212/6/1  213/7/1  211/8/1 
f  212/5/1  214/6/1  179/7/1  213/8/1 
f  215/21/1  216/22/1  217/23/1  180/24/1 
f  216/21/1  218/22/1  219/23/1  217/24/1 
f  218/21/1  220/22/1  221/23/1  219/24/1 
f  220/21/1  222/22/1  223/23/1  221/24/1 
f  222/21/1  224/22/1  225/23/1  223/24/1 
f  224/21/1  226/22/1  227/23/1  225/24/1 
f  226/21/1  228/22/1  229/23/1  227/24/1 
f  228/21/1  230/22/1  231/23/1  229/24/1 
f  232/17/1  233/18/1  184/19/1  183/20/1 
f  233/5/1  234/6/1  187/7/1  184/8/1 
f  242/5/1  243/6/1  212/7/1  210/8/1 
f  243/5/1  244/6/1  214/7/1  212/8/1 
f  246/21/1  247/22/1  226/23/1  224/24/1 
f  247/21/1  248/22/1  228/23/1  226/24/1 
f  248/21/1  249/22/1  230/23/1  228/24/1 
f  262/5/1  263/6/1  243/7/1  242/8/1 
f  263/5/1  264/6/1  244/7/1  243/8/1 
f  266/21/1  267/22/1  247/23/1  246/24/1 
f  267/21/1  268/22/1  248/23/1  247/24/1 
f  268/21/1  269/22/1  249/23/1  248/24/1 
f  277/5/1  278/6/1  263/7/1  262/8/1 
f  278/5/1  279/6/1  264/7/1  263/8/1 
f  281/21/1  282/22/1  267/23/1  266/24/1 
f  282/21/1  283/22/1  268/23/1  267/24/1 
f  283/21/1  284/22/1  269/23/1  268/24/1 
f  292/5/1  293/6/1  278/7/1  277/8/1 
f  293/5/1  294/6/1  279/7/1  278/8/1 
f  296/21/1  297/22/1  282/23/1  281/24/1 
f  297/21/1  298/22/1  283/23/1  282/24/1 
f  298/21/1  299/22/1  284/23/1  283/24/1 
f  307/5/1  308/6/1  293/7/1  292/8/1 
f  308/5/1  309/6/1  294/7/1  293/8/1 
f  320/21/1  321/22/1  298/23/1  297/24/1 
f  321/21/1  322/22/1  299/23/1  298/24/1 
f  330/5/1  331/6/1  308/7/1  307/8/1 
f  331/5/1  332/6/1  309/7/1  308/8/1 
f  339/5/1  340/6/1  321/7/1  320/8/1 
f  340/5/1  341/6/1  322/7/1  321/8/1 
f  341/5/1  342/6/1  343/7/1  322/8/1 
f  342/5/1  344/6/1  345/7/1  343/8/1 
f  344/5/1  346/6/1  347/7/1  345/8/1 
f  346/5/1  348/6/1  349/7/1  347/8/1 
f  348/5/1  350/6/1  323/7/1  349/8/1 
f  354/5/1  355/6/1  331/7/1  330/8/1 
f  355/5/1  356/6/1  332/7/1  331/8/1 
f  356/5/1  357/6/1  333/7/1  332/8/1 
f  359/21/1  360/22/1  340/23/1  339/24/1 
f  360/21/1  361/22/1  341/23/1  340/24/1 
f  362/5/1  363/6/1  346/7/1  344/8/1 
f  368/5/1  369/6/1  370/7/1  371/8/1 
f  372/5/1  373/6/1  355/7/1  354/8/1 
f  373/5/1  374/6/1  356/7/1  355/8/1 
f  374/5/1  375/6/1  357/7/1  356/8/1 
f  376/5/1  377/6/1  378/7/1  379/8/1 
f  377/5/1  380/6/1  381/7/1  378/8/1 
f  380/5/1  382/6/1  383/7/1  381/8/1 
f  385/21/1  386/22/1  360/23/1  359/24/1 
f  386/21/1  387/22/1  361/23/1  360/24/1 
f  388/5/1  389/6/1  363/7/1  362/8/1 
f  394/5/1  395/6/1  369/7/1  368/8/1 
f  396/5/1  397/6/1  373/7/1  372/8/1 
f  397/5/1  398/6/1  374/7/1  373/8/1 
f  398/5/1  399/6/1  375/7/1  374/8/1 
f  400/5/1  401/6/1  377/7/1  376/8/1 
f  401/5/1  402/6/1  380/7/1  377/8/1 
f  402/5/1  403/6/1  382/7/1  380/8/1 
f  405/21/1  406/22/1  386/23/1  385/24/1 
f  406/21/1  407/22/1  387/23/1  386/24/1 
f  408/5/1  409/6/1  389/7/1  388/8/1 
