# Wavefront OBJ file automatically generated by Tiled2Unity

# Vertices (Count = 286)
v 0 -32 0
v -32 -32 0
v -32 0 0
v 0 0 0
v -64 -32 0
v -64 0 0
v -96 -32 0
v -96 0 0
v -128 -32 0
v -128 0 0
v -160 -32 0
v -160 0 0
v -192 -32 0
v -192 0 0
v -224 -32 0
v -224 0 0
v -256 -32 0
v -256 0 0
v -288 -32 0
v -288 0 0
v -320 -32 0
v -320 0 0
v -352 -32 0
v -352 0 0
v -384 -32 0
v -384 0 0
v -416 -32 0
v -416 0 0
v -448 -32 0
v -448 0 0
v -480 -32 0
v -480 0 0
v -512 -32 0
v -512 0 0
v -544 -32 0
v -544 0 0
v -576 -32 0
v -576 0 0
v -608 -32 0
v -608 0 0
v -640 -32 0
v -640 0 0
v -672 -32 0
v -672 0 0
v -704 -32 0
v -704 0 0
v -736 -32 0
v -736 0 0
v -768 -32 0
v -768 0 0
v -800 -32 0
v -800 0 0
v -832 -32 0
v -832 0 0
v -864 -32 0
v -864 0 0
v -896 -32 0
v -896 0 0
v -928 -32 0
v -928 0 0
v -960 -32 0
v -960 0 0
v -992 -32 0
v -992 0 0
v -1024 -32 0
v -1024 0 0
v -1056 -32 0
v -1056 0 0
v -1088 -32 0
v -1088 0 0
v -1120 -32 0
v -1120 0 0
v -1152 -32 0
v -1152 0 0
v -1184 -32 0
v -1184 0 0
v -1216 -32 0
v -1216 0 0
v -1248 -32 0
v -1248 0 0
v -1280 -32 0
v -1280 0 0
v -1312 -32 0
v -1312 0 0
v -1344 -32 0
v -1344 0 0
v -1376 -32 0
v -1376 0 0
v -1408 -32 0
v -1408 0 0
v -1440 -32 0
v -1440 0 0
v -1472 -32 0
v -1472 0 0
v -1504 -32 0
v -1504 0 0
v -1536 -32 0
v -1536 0 0
v 0 -64 0
v -32 -64 0
v -1504 -64 0
v -1536 -64 0
v 0 -96 0
v -32 -96 0
v -1504 -96 0
v -1536 -96 0
v 0 -128 0
v -32 -128 0
v -1504 -128 0
v -1536 -128 0
v 0 -160 0
v -32 -160 0
v -1504 -160 0
v -1536 -160 0
v 0 -192 0
v -32 -192 0
v -1504 -192 0
v -1536 -192 0
v 0 -224 0
v -32 -224 0
v -1504 -224 0
v -1536 -224 0
v 0 -256 0
v -32 -256 0
v -1504 -256 0
v -1536 -256 0
v 0 -288 0
v -32 -288 0
v -1504 -288 0
v -1536 -288 0
v 0 -320 0
v -32 -320 0
v -1504 -320 0
v -1536 -320 0
v 0 -352 0
v -32 -352 0
v -1504 -352 0
v -1536 -352 0
v 0 -384 0
v -32 -384 0
v -1504 -384 0
v -1536 -384 0
v 0 -416 0
v -32 -416 0
v -1504 -416 0
v -1536 -416 0
v 0 -448 0
v -32 -448 0
v -1504 -448 0
v -1536 -448 0
v 0 -480 0
v -32 -480 0
v -1504 -480 0
v -1536 -480 0
v 0 -512 0
v -32 -512 0
v -1504 -512 0
v -1536 -512 0
v 0 -544 0
v -32 -544 0
v -1504 -544 0
v -1536 -544 0
v 0 -576 0
v -32 -576 0
v -1504 -576 0
v -1536 -576 0
v 0 -608 0
v -32 -608 0
v -1504 -608 0
v -1536 -608 0
v 0 -640 0
v -32 -640 0
v -1504 -640 0
v -1536 -640 0
v 0 -672 0
v -32 -672 0
v -1504 -672 0
v -1536 -672 0
v 0 -704 0
v -32 -704 0
v -1088 -704 0
v -1120 -704 0
v -1120 -672 0
v -1088 -672 0
v -1504 -704 0
v -1536 -704 0
v 0 -736 0
v -32 -736 0
v -288 -736 0
v -320 -736 0
v -320 -704 0
v -288 -704 0
v -1088 -736 0
v -1120 -736 0
v -1504 -736 0
v -1536 -736 0
v 0 -768 0
v -32 -768 0
v -64 -768 0
v -64 -736 0
v -96 -768 0
v -96 -736 0
v -128 -768 0
v -128 -736 0
v -160 -768 0
v -160 -736 0
v -192 -768 0
v -192 -736 0
v -224 -768 0
v -224 -736 0
v -256 -768 0
v -256 -736 0
v -288 -768 0
v -320 -768 0
v -352 -768 0
v -352 -736 0
v -384 -768 0
v -384 -736 0
v -416 -768 0
v -416 -736 0
v -448 -768 0
v -448 -736 0
v -480 -768 0
v -480 -736 0
v -512 -768 0
v -512 -736 0
v -544 -768 0
v -544 -736 0
v -576 -768 0
v -576 -736 0
v -608 -768 0
v -608 -736 0
v -640 -768 0
v -640 -736 0
v -672 -768 0
v -672 -736 0
v -704 -768 0
v -704 -736 0
v -736 -768 0
v -736 -736 0
v -768 -768 0
v -768 -736 0
v -800 -768 0
v -800 -736 0
v -832 -768 0
v -832 -736 0
v -864 -768 0
v -864 -736 0
v -896 -768 0
v -896 -736 0
v -928 -768 0
v -928 -736 0
v -960 -768 0
v -960 -736 0
v -992 -768 0
v -992 -736 0
v -1024 -768 0
v -1024 -736 0
v -1056 -768 0
v -1056 -736 0
v -1088 -768 0
v -1120 -768 0
v -1152 -768 0
v -1152 -736 0
v -1184 -768 0
v -1184 -736 0
v -1216 -768 0
v -1216 -736 0
v -1248 -768 0
v -1248 -736 0
v -1280 -768 0
v -1280 -736 0
v -1312 -768 0
v -1312 -736 0
v -1344 -768 0
v -1344 -736 0
v -1376 -768 0
v -1376 -736 0
v -1408 -768 0
v -1408 -736 0
v -1440 -768 0
v -1440 -736 0
v -1472 -768 0
v -1472 -736 0
v -1504 -768 0
v -1536 -768 0

# Texture Coorindates (Count = 12)
vt 0.2501221 0.7501221
vt 0.4998779 0.7501221
vt 0.4998779 0.9998779
vt 0.2501221 0.9998779
vt 0.5001221 0.7501221
vt 0.7498779 0.7501221
vt 0.7498779 0.9998779
vt 0.5001221 0.9998779
vt 0.7501221 0.7501221
vt 0.9998779 0.7501221
vt 0.9998779 0.9998779
vt 0.7501221 0.9998779

# Normal
vn 0 0 -1

# Groups (Count = 1)
g mesh_[00]_[00]
f  1/1/1  2/2/1  3/3/1  4/4/1 
f  2/5/1  5/6/1  6/7/1  3/8/1 
f  5/5/1  7/6/1  8/7/1  6/8/1 
f  7/5/1  9/6/1  10/7/1  8/8/1 
f  9/5/1  11/6/1  12/7/1  10/8/1 
f  11/5/1  13/6/1  14/7/1  12/8/1 
f  13/5/1  15/6/1  16/7/1  14/8/1 
f  15/5/1  17/6/1  18/7/1  16/8/1 
f  17/5/1  19/6/1  20/7/1  18/8/1 
f  19/5/1  21/6/1  22/7/1  20/8/1 
f  21/5/1  23/6/1  24/7/1  22/8/1 
f  23/5/1  25/6/1  26/7/1  24/8/1 
f  25/5/1  27/6/1  28/7/1  26/8/1 
f  27/5/1  29/6/1  30/7/1  28/8/1 
f  29/5/1  31/6/1  32/7/1  30/8/1 
f  31/5/1  33/6/1  34/7/1  32/8/1 
f  33/5/1  35/6/1  36/7/1  34/8/1 
f  35/5/1  37/6/1  38/7/1  36/8/1 
f  37/5/1  39/6/1  40/7/1  38/8/1 
f  39/5/1  41/6/1  42/7/1  40/8/1 
f  41/5/1  43/6/1  44/7/1  42/8/1 
f  43/5/1  45/6/1  46/7/1  44/8/1 
f  45/5/1  47/6/1  48/7/1  46/8/1 
f  47/5/1  49/6/1  50/7/1  48/8/1 
f  49/5/1  51/6/1  52/7/1  50/8/1 
f  51/5/1  53/6/1  54/7/1  52/8/1 
f  53/5/1  55/6/1  56/7/1  54/8/1 
f  55/5/1  57/6/1  58/7/1  56/8/1 
f  57/5/1  59/6/1  60/7/1  58/8/1 
f  59/5/1  61/6/1  62/7/1  60/8/1 
f  61/5/1  63/6/1  64/7/1  62/8/1 
f  63/5/1  65/6/1  66/7/1  64/8/1 
f  65/5/1  67/6/1  68/7/1  66/8/1 
f  67/5/1  69/6/1  70/7/1  68/8/1 
f  69/5/1  71/6/1  72/7/1  70/8/1 
f  71/5/1  73/6/1  74/7/1  72/8/1 
f  73/5/1  75/6/1  76/7/1  74/8/1 
f  75/5/1  77/6/1  78/7/1  76/8/1 
f  77/5/1  79/6/1  80/7/1  78/8/1 
f  79/5/1  81/6/1  82/7/1  80/8/1 
f  81/5/1  83/6/1  84/7/1  82/8/1 
f  83/5/1  85/6/1  86/7/1  84/8/1 
f  85/5/1  87/6/1  88/7/1  86/8/1 
f  87/5/1  89/6/1  90/7/1  88/8/1 
f  89/5/1  91/6/1  92/7/1  90/8/1 
f  91/5/1  93/6/1  94/7/1  92/8/1 
f  93/5/1  95/6/1  96/7/1  94/8/1 
f  95/1/1  97/2/1  98/3/1  96/4/1 
f  99/9/1  100/10/1  2/11/1  1/12/1 
f  101/9/1  102/10/1  97/11/1  95/12/1 
f  103/9/1  104/10/1  100/11/1  99/12/1 
f  105/9/1  106/10/1  102/11/1  101/12/1 
f  107/9/1  108/10/1  104/11/1  103/12/1 
f  109/9/1  110/10/1  106/11/1  105/12/1 
f  111/9/1  112/10/1  108/11/1  107/12/1 
f  113/9/1  114/10/1  110/11/1  109/12/1 
f  115/9/1  116/10/1  112/11/1  111/12/1 
f  117/9/1  118/10/1  114/11/1  113/12/1 
f  119/9/1  120/10/1  116/11/1  115/12/1 
f  121/9/1  122/10/1  118/11/1  117/12/1 
f  123/9/1  124/10/1  120/11/1  119/12/1 
f  125/9/1  126/10/1  122/11/1  121/12/1 
f  127/9/1  128/10/1  124/11/1  123/12/1 
f  129/9/1  130/10/1  126/11/1  125/12/1 
f  131/9/1  132/10/1  128/11/1  127/12/1 
f  133/9/1  134/10/1  130/11/1  129/12/1 
f  135/9/1  136/10/1  132/11/1  131/12/1 
f  137/9/1  138/10/1  134/11/1  133/12/1 
f  139/9/1  140/10/1  136/11/1  135/12/1 
f  141/9/1  142/10/1  138/11/1  137/12/1 
f  143/9/1  144/10/1  140/11/1  139/12/1 
f  145/9/1  146/10/1  142/11/1  141/12/1 
f  147/9/1  148/10/1  144/11/1  143/12/1 
f  149/9/1  150/10/1  146/11/1  145/12/1 
f  151/9/1  152/10/1  148/11/1  147/12/1 
f  153/9/1  154/10/1  150/11/1  149/12/1 
f  155/9/1  156/10/1  152/11/1  151/12/1 
f  157/9/1  158/10/1  154/11/1  153/12/1 
f  159/9/1  160/10/1  156/11/1  155/12/1 
f  161/9/1  162/10/1  158/11/1  157/12/1 
f  163/9/1  164/10/1  160/11/1  159/12/1 
f  165/9/1  166/10/1  162/11/1  161/12/1 
f  167/9/1  168/10/1  164/11/1  163/12/1 
f  169/9/1  170/10/1  166/11/1  165/12/1 
f  171/9/1  172/10/1  168/11/1  167/12/1 
f  173/9/1  174/10/1  170/11/1  169/12/1 
f  175/9/1  176/10/1  172/11/1  171/12/1 
f  177/9/1  178/10/1  174/11/1  173/12/1 
f  179/9/1  180/10/1  176/11/1  175/12/1 
f  181/1/1  182/2/1  183/3/1  184/4/1 
f  185/9/1  186/10/1  178/11/1  177/12/1 
f  187/9/1  188/10/1  180/11/1  179/12/1 
f  189/1/1  190/2/1  191/3/1  192/4/1 
f  193/1/1  194/2/1  182/3/1  181/4/1 
f  195/9/1  196/10/1  186/11/1  185/12/1 
f  197/1/1  198/2/1  188/3/1  187/4/1 
f  198/5/1  199/6/1  200/7/1  188/8/1 
f  199/5/1  201/6/1  202/7/1  200/8/1 
f  201/5/1  203/6/1  204/7/1  202/8/1 
f  203/5/1  205/6/1  206/7/1  204/8/1 
f  205/5/1  207/6/1  208/7/1  206/8/1 
f  207/5/1  209/6/1  210/7/1  208/8/1 
f  209/5/1  211/6/1  212/7/1  210/8/1 
f  211/5/1  213/6/1  189/7/1  212/8/1 
f  213/5/1  214/6/1  190/7/1  189/8/1 
f  214/5/1  215/6/1  216/7/1  190/8/1 
f  215/5/1  217/6/1  218/7/1  216/8/1 
f  217/5/1  219/6/1  220/7/1  218/8/1 
f  219/5/1  221/6/1  222/7/1  220/8/1 
f  221/5/1  223/6/1  224/7/1  222/8/1 
f  223/5/1  225/6/1  226/7/1  224/8/1 
f  225/5/1  227/6/1  228/7/1  226/8/1 
f  227/5/1  229/6/1  230/7/1  228/8/1 
f  229/5/1  231/6/1  232/7/1  230/8/1 
f  231/5/1  233/6/1  234/7/1  232/8/1 
f  233/5/1  235/6/1  236/7/1  234/8/1 
f  235/5/1  237/6/1  238/7/1  236/8/1 
f  237/5/1  239/6/1  240/7/1  238/8/1 
f  239/5/1  241/6/1  242/7/1  240/8/1 
f  241/5/1  243/6/1  244/7/1  242/8/1 
f  243/5/1  245/6/1  246/7/1  244/8/1 
f  245/5/1  247/6/1  248/7/1  246/8/1 
f  247/5/1  249/6/1  250/7/1  248/8/1 
f  249/5/1  251/6/1  252/7/1  250/8/1 
f  251/5/1  253/6/1  254/7/1  252/8/1 
f  253/5/1  255/6/1  256/7/1  254/8/1 
f  255/5/1  257/6/1  258/7/1  256/8/1 
f  257/5/1  259/6/1  260/7/1  258/8/1 
f  259/5/1  261/6/1  193/7/1  260/8/1 
f  261/5/1  262/6/1  194/7/1  193/8/1 
f  262/5/1  263/6/1  264/7/1  194/8/1 
f  263/5/1  265/6/1  266/7/1  264/8/1 
f  265/5/1  267/6/1  268/7/1  266/8/1 
f  267/5/1  269/6/1  270/7/1  268/8/1 
f  269/5/1  271/6/1  272/7/1  270/8/1 
f  271/5/1  273/6/1  274/7/1  272/8/1 
f  273/5/1  275/6/1  276/7/1  274/8/1 
f  275/5/1  277/6/1  278/7/1  276/8/1 
f  277/5/1  279/6/1  280/7/1  278/8/1 
f  279/5/1  281/6/1  282/7/1  280/8/1 
f  281/5/1  283/6/1  284/7/1  282/8/1 
f  283/5/1  285/6/1  195/7/1  284/8/1 
f  285/1/1  286/2/1  196/3/1  195/4/1 
